{"title":"Black Dynamite.2009.DVDRip.XViD.SWESUB.avi","uid":5504771,"size":1470101210,"categoryP":"video","categoryS":"movies","magnet":"?xt=urn:btih:182a44a781e4d238c6177b40cb8a4e7b3c15d3eb&amp;dn=Black+Dynamite.2009.DVDRip.XViD.SWESUB.avi&amp;tr=udp%3A%2F%2Ftracker.openbittorrent.com%3A80&amp;tr=udp%3A%2F%2Fopen.demonii.com%3A1337&amp;tr=udp%3A%2F%2Ftracker.coppersurfer.tk%3A6969&amp;tr=udp%3A%2F%2Fexodus.desync.com%3A6969","seeders":5,"leechers":0,"uploader":"Zen_Bud","files":-1,"time":1271753892,"description":"General\nComplete name                    : Black Dynamite.avi\nFormat                           : AVI\nFormat/Info                      : Audio Video Interleave\nFile size                        : 1.37 GiB\nDuration                         : 1h 20mn\nOverall bit rate                 : 2 430 Kbps\n\nVideo\nID                               : 0\nFormat                           : MPEG-4 Visual\nCodec ID/Hint                    : XviD\nDuration                         : 1h 20mn\nBit rate                         : 2 257 Kbps\nWidth                            : 720 pixels\nHeight                           : 576 pixels\nDisplay aspect ratio             : 16:9\nResolution                       : 8 bits\nColorimetry                      : 4:2:0\nScan type                        : Progressive\nBits/(Pixel*Frame)               : 0.218\nStream size                      : 1.27 GiB (93%)\nWriting library                  : XviD 1.1.2 (UTC 2006-11-01)\n\nAudio\nID                               : 1\nFormat                           : MPEG Audio\nFormat_Settings_ModeExtension    : MS Stereo\nCodec ID                         : 55\nCodec ID/Hint                    : MP3\nDuration                         : 1h 20mn\nBit rate mode                    : Constant\nBit rate                         : 160 Kbps\nChannel(s)                       : 2 channels\nSampling rate                    : 48.0 KHz\nStream size                      : 92.3 MiB (7%)\n\n\n","torrent":{"xt":"urn:btih:182a44a781e4d238c6177b40cb8a4e7b3c15d3eb","amp;dn":"Black+Dynamite.2009.DVDRip.XViD.SWESUB.avi","amp;tr":["udp%3A%2F%2Ftracker.openbittorrent.com%3A80","udp%3A%2F%2Fopen.demonii.com%3A1337","udp%3A%2F%2Ftracker.coppersurfer.tk%3A6969","udp%3A%2F%2Fexodus.desync.com%3A6969"],"infoHash":"182a44a781e4d238c6177b40cb8a4e7b3c15d3eb","infoHashBuffer":{"type":"Buffer","data":[24,42,68,167,129,228,210,56,198,23,123,64,203,138,78,123,60,21,211,235]},"announce":[],"urlList":[]}}